<mxfile host="app.diagrams.net" modified="2022-07-11T21:28:03.495Z" agent="5.0 (X11; Linux x86_64) AppleWebKit/537.36 (KHTML, like Gecko) Chrome/103.0.0.0 Safari/537.36" etag="n71BHveEzN9bP7_gy_fg" version="20.0.4" type="github" pages="2">
  <diagram id="tFQ0ERwNX2ZqUiJH5gMG" name="Page-1">
    <mxGraphModel dx="1677" dy="1528" grid="1" gridSize="10" guides="1" tooltips="1" connect="1" arrows="1" fold="1" page="1" pageScale="1" pageWidth="850" pageHeight="1100" math="0" shadow="0">
      <root>
        <mxCell id="0" />
        <mxCell id="1" parent="0" />
        <mxCell id="wdb4Ms79B8yGjbeq962m-16" style="edgeStyle=orthogonalEdgeStyle;rounded=0;orthogonalLoop=1;jettySize=auto;html=1;entryX=0.674;entryY=-0.037;entryDx=0;entryDy=0;entryPerimeter=0;fontColor=#330000;" parent="1" source="wdb4Ms79B8yGjbeq962m-2" target="wdb4Ms79B8yGjbeq962m-12" edge="1">
          <mxGeometry relative="1" as="geometry" />
        </mxCell>
        <mxCell id="wdb4Ms79B8yGjbeq962m-18" style="edgeStyle=orthogonalEdgeStyle;rounded=0;orthogonalLoop=1;jettySize=auto;html=1;entryX=0.34;entryY=-0.003;entryDx=0;entryDy=0;entryPerimeter=0;fontColor=#330000;" parent="1" source="wdb4Ms79B8yGjbeq962m-2" target="wdb4Ms79B8yGjbeq962m-11" edge="1">
          <mxGeometry relative="1" as="geometry" />
        </mxCell>
        <mxCell id="wdb4Ms79B8yGjbeq962m-19" style="edgeStyle=orthogonalEdgeStyle;rounded=0;orthogonalLoop=1;jettySize=auto;html=1;entryX=0.5;entryY=0;entryDx=0;entryDy=0;entryPerimeter=0;fontColor=#330000;" parent="1" source="wdb4Ms79B8yGjbeq962m-2" target="wdb4Ms79B8yGjbeq962m-13" edge="1">
          <mxGeometry relative="1" as="geometry" />
        </mxCell>
        <mxCell id="wdb4Ms79B8yGjbeq962m-20" style="edgeStyle=orthogonalEdgeStyle;rounded=0;orthogonalLoop=1;jettySize=auto;html=1;fontColor=#330000;" parent="1" source="wdb4Ms79B8yGjbeq962m-2" target="wdb4Ms79B8yGjbeq962m-15" edge="1">
          <mxGeometry relative="1" as="geometry" />
        </mxCell>
        <mxCell id="wdb4Ms79B8yGjbeq962m-2" value="Project" style="ellipse;whiteSpace=wrap;html=1;" parent="1" vertex="1">
          <mxGeometry x="440" y="50" width="120" height="80" as="geometry" />
        </mxCell>
        <mxCell id="wdb4Ms79B8yGjbeq962m-11" value="&lt;div&gt;application.dart&lt;/div&gt;&lt;div&gt;&lt;br&gt;&lt;/div&gt;" style="verticalLabelPosition=bottom;html=1;verticalAlign=top;align=center;strokeColor=none;fillColor=#00BEF2;shape=mxgraph.azure.code_file;pointerEvents=1;fontColor=#330000;" parent="1" vertex="1">
          <mxGeometry x="210" y="150" width="47.5" height="50" as="geometry" />
        </mxCell>
        <mxCell id="wdb4Ms79B8yGjbeq962m-12" value="main.dart" style="verticalLabelPosition=bottom;html=1;verticalAlign=top;align=center;strokeColor=none;fillColor=#00BEF2;shape=mxgraph.azure.code_file;pointerEvents=1;fontColor=#330000;" parent="1" vertex="1">
          <mxGeometry x="90" y="150" width="47.5" height="50" as="geometry" />
        </mxCell>
        <mxCell id="wdb4Ms79B8yGjbeq962m-13" value="initializer.dart" style="verticalLabelPosition=bottom;html=1;verticalAlign=top;align=center;strokeColor=none;fillColor=#00BEF2;shape=mxgraph.azure.code_file;pointerEvents=1;fontColor=#330000;" parent="1" vertex="1">
          <mxGeometry x="340" y="150" width="47.5" height="50" as="geometry" />
        </mxCell>
        <mxCell id="wdb4Ms79B8yGjbeq962m-30" style="edgeStyle=orthogonalEdgeStyle;rounded=0;orthogonalLoop=1;jettySize=auto;html=1;fontColor=#330000;" parent="1" source="wdb4Ms79B8yGjbeq962m-15" target="wdb4Ms79B8yGjbeq962m-23" edge="1">
          <mxGeometry relative="1" as="geometry">
            <Array as="points">
              <mxPoint x="550" y="183" />
              <mxPoint x="550" y="270" />
              <mxPoint x="125" y="270" />
            </Array>
          </mxGeometry>
        </mxCell>
        <mxCell id="XMhONWHRSR3KESh7TNqj-18" style="edgeStyle=orthogonalEdgeStyle;rounded=0;orthogonalLoop=1;jettySize=auto;html=1;" parent="1" source="wdb4Ms79B8yGjbeq962m-15" target="XMhONWHRSR3KESh7TNqj-19" edge="1">
          <mxGeometry relative="1" as="geometry">
            <mxPoint x="990" y="350" as="targetPoint" />
          </mxGeometry>
        </mxCell>
        <mxCell id="wdb4Ms79B8yGjbeq962m-15" value="src" style="sketch=0;pointerEvents=1;shadow=0;dashed=0;html=1;strokeColor=none;labelPosition=center;verticalLabelPosition=bottom;verticalAlign=top;outlineConnect=0;align=center;shape=mxgraph.office.concepts.folder;fillColor=#2072B8;fontColor=#330000;" parent="1" vertex="1">
          <mxGeometry x="570" y="160" width="50" height="45" as="geometry" />
        </mxCell>
        <mxCell id="wdb4Ms79B8yGjbeq962m-31" style="edgeStyle=orthogonalEdgeStyle;rounded=0;orthogonalLoop=1;jettySize=auto;html=1;fontColor=#330000;" parent="1" source="wdb4Ms79B8yGjbeq962m-23" target="wdb4Ms79B8yGjbeq962m-26" edge="1">
          <mxGeometry relative="1" as="geometry" />
        </mxCell>
        <mxCell id="wdb4Ms79B8yGjbeq962m-32" style="edgeStyle=orthogonalEdgeStyle;rounded=0;orthogonalLoop=1;jettySize=auto;html=1;fontColor=#330000;" parent="1" source="wdb4Ms79B8yGjbeq962m-23" target="wdb4Ms79B8yGjbeq962m-27" edge="1">
          <mxGeometry relative="1" as="geometry">
            <mxPoint x="200" y="410" as="targetPoint" />
            <Array as="points">
              <mxPoint x="190" y="353" />
            </Array>
          </mxGeometry>
        </mxCell>
        <mxCell id="wdb4Ms79B8yGjbeq962m-33" style="edgeStyle=orthogonalEdgeStyle;rounded=0;orthogonalLoop=1;jettySize=auto;html=1;fontColor=#330000;" parent="1" source="wdb4Ms79B8yGjbeq962m-23" target="wdb4Ms79B8yGjbeq962m-28" edge="1">
          <mxGeometry relative="1" as="geometry" />
        </mxCell>
        <mxCell id="wdb4Ms79B8yGjbeq962m-23" value="config" style="sketch=0;pointerEvents=1;shadow=0;dashed=0;html=1;strokeColor=none;labelPosition=center;verticalLabelPosition=bottom;verticalAlign=top;outlineConnect=0;align=center;shape=mxgraph.office.concepts.folder;fillColor=#2072B8;fontColor=#330000;" parent="1" vertex="1">
          <mxGeometry x="100" y="330" width="50" height="45" as="geometry" />
        </mxCell>
        <mxCell id="XMhONWHRSR3KESh7TNqj-10" style="edgeStyle=orthogonalEdgeStyle;rounded=0;orthogonalLoop=1;jettySize=auto;html=1;entryX=0.5;entryY=0;entryDx=0;entryDy=0;entryPerimeter=0;" parent="1" source="wdb4Ms79B8yGjbeq962m-26" target="XMhONWHRSR3KESh7TNqj-1" edge="1">
          <mxGeometry relative="1" as="geometry">
            <Array as="points">
              <mxPoint x="10" y="492.5" />
              <mxPoint x="10" y="590" />
            </Array>
          </mxGeometry>
        </mxCell>
        <mxCell id="wdb4Ms79B8yGjbeq962m-26" value="navigators" style="sketch=0;pointerEvents=1;shadow=0;dashed=0;html=1;strokeColor=none;labelPosition=center;verticalLabelPosition=bottom;verticalAlign=top;outlineConnect=0;align=center;shape=mxgraph.office.concepts.folder;fillColor=#2072B8;fontColor=#330000;" parent="1" vertex="1">
          <mxGeometry x="30" y="470" width="50" height="45" as="geometry" />
        </mxCell>
        <mxCell id="XMhONWHRSR3KESh7TNqj-11" style="edgeStyle=orthogonalEdgeStyle;rounded=0;orthogonalLoop=1;jettySize=auto;html=1;" parent="1" source="wdb4Ms79B8yGjbeq962m-27" target="XMhONWHRSR3KESh7TNqj-2" edge="1">
          <mxGeometry relative="1" as="geometry">
            <Array as="points">
              <mxPoint x="140" y="492" />
              <mxPoint x="140" y="595" />
            </Array>
          </mxGeometry>
        </mxCell>
        <mxCell id="wdb4Ms79B8yGjbeq962m-27" value="routes" style="sketch=0;pointerEvents=1;shadow=0;dashed=0;html=1;strokeColor=none;labelPosition=center;verticalLabelPosition=bottom;verticalAlign=top;outlineConnect=0;align=center;shape=mxgraph.office.concepts.folder;fillColor=#2072B8;fontColor=#330000;" parent="1" vertex="1">
          <mxGeometry x="160" y="470" width="50" height="45" as="geometry" />
        </mxCell>
        <mxCell id="XMhONWHRSR3KESh7TNqj-12" style="edgeStyle=orthogonalEdgeStyle;rounded=0;orthogonalLoop=1;jettySize=auto;html=1;entryX=0.5;entryY=0;entryDx=0;entryDy=0;entryPerimeter=0;" parent="1" source="wdb4Ms79B8yGjbeq962m-28" target="XMhONWHRSR3KESh7TNqj-5" edge="1">
          <mxGeometry relative="1" as="geometry" />
        </mxCell>
        <mxCell id="XMhONWHRSR3KESh7TNqj-13" style="edgeStyle=orthogonalEdgeStyle;rounded=0;orthogonalLoop=1;jettySize=auto;html=1;entryX=0.356;entryY=0.211;entryDx=0;entryDy=0;entryPerimeter=0;" parent="1" source="wdb4Ms79B8yGjbeq962m-28" target="XMhONWHRSR3KESh7TNqj-4" edge="1">
          <mxGeometry relative="1" as="geometry">
            <mxPoint x="370" y="510" as="sourcePoint" />
            <Array as="points">
              <mxPoint x="370" y="492" />
              <mxPoint x="370" y="571" />
            </Array>
          </mxGeometry>
        </mxCell>
        <mxCell id="XMhONWHRSR3KESh7TNqj-14" style="edgeStyle=orthogonalEdgeStyle;rounded=0;orthogonalLoop=1;jettySize=auto;html=1;" parent="1" source="wdb4Ms79B8yGjbeq962m-28" target="XMhONWHRSR3KESh7TNqj-6" edge="1">
          <mxGeometry relative="1" as="geometry" />
        </mxCell>
        <mxCell id="XMhONWHRSR3KESh7TNqj-15" style="edgeStyle=orthogonalEdgeStyle;rounded=0;orthogonalLoop=1;jettySize=auto;html=1;entryX=0.715;entryY=0.211;entryDx=0;entryDy=0;entryPerimeter=0;" parent="1" source="wdb4Ms79B8yGjbeq962m-28" target="XMhONWHRSR3KESh7TNqj-7" edge="1">
          <mxGeometry relative="1" as="geometry" />
        </mxCell>
        <mxCell id="wdb4Ms79B8yGjbeq962m-28" value="themes" style="sketch=0;pointerEvents=1;shadow=0;dashed=0;html=1;strokeColor=none;labelPosition=center;verticalLabelPosition=bottom;verticalAlign=top;outlineConnect=0;align=center;shape=mxgraph.office.concepts.folder;fillColor=#2072B8;fontColor=#330000;" parent="1" vertex="1">
          <mxGeometry x="400" y="470" width="50" height="45" as="geometry" />
        </mxCell>
        <mxCell id="XMhONWHRSR3KESh7TNqj-1" value="navigators.dart" style="verticalLabelPosition=bottom;html=1;verticalAlign=top;align=center;strokeColor=none;fillColor=#00BEF2;shape=mxgraph.azure.code_file;pointerEvents=1;fontColor=#330000;" parent="1" vertex="1">
          <mxGeometry x="31.25" y="590" width="47.5" height="50" as="geometry" />
        </mxCell>
        <mxCell id="XMhONWHRSR3KESh7TNqj-2" value="routes.dart" style="verticalLabelPosition=bottom;html=1;verticalAlign=top;align=center;strokeColor=none;fillColor=#00BEF2;shape=mxgraph.azure.code_file;pointerEvents=1;fontColor=#330000;" parent="1" vertex="1">
          <mxGeometry x="161.25" y="570" width="47.5" height="50" as="geometry" />
        </mxCell>
        <mxCell id="XMhONWHRSR3KESh7TNqj-4" value="text_themes.dart" style="verticalLabelPosition=bottom;html=1;verticalAlign=top;align=center;strokeColor=none;fillColor=#00BEF2;shape=mxgraph.azure.code_file;pointerEvents=1;fontColor=#330000;" parent="1" vertex="1">
          <mxGeometry x="392.5" y="600" width="47.5" height="50" as="geometry" />
        </mxCell>
        <mxCell id="XMhONWHRSR3KESh7TNqj-5" value="app_themes.dart" style="verticalLabelPosition=bottom;html=1;verticalAlign=top;align=center;strokeColor=none;fillColor=#00BEF2;shape=mxgraph.azure.code_file;pointerEvents=1;fontColor=#330000;" parent="1" vertex="1">
          <mxGeometry x="292.5" y="600" width="47.5" height="50" as="geometry" />
        </mxCell>
        <mxCell id="XMhONWHRSR3KESh7TNqj-6" value="button_themes.dart" style="verticalLabelPosition=bottom;html=1;verticalAlign=top;align=center;strokeColor=none;fillColor=#00BEF2;shape=mxgraph.azure.code_file;pointerEvents=1;fontColor=#330000;" parent="1" vertex="1">
          <mxGeometry x="500" y="600" width="47.5" height="50" as="geometry" />
        </mxCell>
        <mxCell id="XMhONWHRSR3KESh7TNqj-7" value="..._themes.dart" style="verticalLabelPosition=bottom;html=1;verticalAlign=top;align=center;strokeColor=none;fillColor=#00BEF2;shape=mxgraph.azure.code_file;pointerEvents=1;fontColor=#330000;" parent="1" vertex="1">
          <mxGeometry x="600" y="600" width="47.5" height="50" as="geometry" />
        </mxCell>
        <mxCell id="XMhONWHRSR3KESh7TNqj-22" style="edgeStyle=orthogonalEdgeStyle;rounded=0;orthogonalLoop=1;jettySize=auto;html=1;" parent="1" source="XMhONWHRSR3KESh7TNqj-19" target="XMhONWHRSR3KESh7TNqj-21" edge="1">
          <mxGeometry relative="1" as="geometry" />
        </mxCell>
        <mxCell id="XMhONWHRSR3KESh7TNqj-19" value="core" style="sketch=0;pointerEvents=1;shadow=0;dashed=0;html=1;strokeColor=none;labelPosition=center;verticalLabelPosition=bottom;verticalAlign=top;outlineConnect=0;align=center;shape=mxgraph.office.concepts.folder;fillColor=#2072B8;fontColor=#330000;" parent="1" vertex="1">
          <mxGeometry x="970" y="340" width="50" height="45" as="geometry" />
        </mxCell>
        <mxCell id="XMhONWHRSR3KESh7TNqj-20" value="Add laters in utils :&lt;br&gt;&lt;br&gt;path_provider&amp;nbsp;&amp;nbsp;&lt;br&gt;&lt;br&gt;&lt;br&gt;&lt;br&gt;" style="text;html=1;strokeColor=none;fillColor=none;align=center;verticalAlign=middle;whiteSpace=wrap;rounded=0;" parent="1" vertex="1">
          <mxGeometry x="-10" y="-80" width="60" height="30" as="geometry" />
        </mxCell>
        <mxCell id="XMhONWHRSR3KESh7TNqj-21" value="utils&lt;br&gt;" style="sketch=0;pointerEvents=1;shadow=0;dashed=0;html=1;strokeColor=none;labelPosition=center;verticalLabelPosition=bottom;verticalAlign=top;outlineConnect=0;align=center;shape=mxgraph.office.concepts.folder;fillColor=#2072B8;fontColor=#330000;" parent="1" vertex="1">
          <mxGeometry x="790" y="440" width="50" height="45" as="geometry" />
        </mxCell>
      </root>
    </mxGraphModel>
  </diagram>
  <diagram id="EL8yksBnnI-XilD_iryw" name="Page-2">
    <mxGraphModel dx="868" dy="449" grid="1" gridSize="10" guides="1" tooltips="1" connect="1" arrows="1" fold="1" page="1" pageScale="1" pageWidth="850" pageHeight="1100" math="0" shadow="0">
      <root>
        <mxCell id="0" />
        <mxCell id="1" parent="0" />
      </root>
    </mxGraphModel>
  </diagram>
</mxfile>
